<svg width="83" height="22" xmlns="http://www.w3.org/2000/svg" xmlns:xlink="http://www.w3.org/1999/xlink">
    <g transform="translate(2571 2709)">
        <use xlink:href="#path0_fill" transform="translate(-2491.09 -2708)" fill="#FFF"/>
        <mask id="a">
        <path fill="#fff" transform="translate(-2491.09 -2708)" d="M-1-1h4v18h-4z"/>
        <use xlink:href="#path0_fill" transform="translate(-2491.09 -2708)"/>
        </mask>
        <g mask="url(#a)">
        <use xlink:href="#path1_stroke_2x" transform="translate(-2491.09 -2708)" fill="#FFF"/>
        </g>
    </g>
    <g transform="translate(2571 2709)">
        <use xlink:href="#path2_fill" transform="translate(-2570 -2704.16)" fill="#FFF"/>
        <mask id="b">
        <path fill="#fff" transform="translate(-2570 -2704.16)" d="M-1-1h13v14H-1z"/>
        <use xlink:href="#path2_fill" transform="translate(-2570 -2704.16)"/>
        </mask>
        <g mask="url(#b)">
        <use xlink:href="#path3_stroke_2x" transform="translate(-2570 -2704.16)" fill="#FFF"/>
        </g>
    </g>
    <g transform="translate(2571 2709)">
        <use xlink:href="#path4_fill" transform="translate(-2555.73 -2704.16)" fill="#FFF"/>
        <mask id="c">
        <path fill="#fff" transform="translate(-2555.73 -2704.16)" d="M-1-1h14v14H-1z"/>
        <use xlink:href="#path4_fill" transform="translate(-2555.73 -2704.16)"/>
        </mask>
        <g mask="url(#c)">
        <use xlink:href="#path5_stroke_2x" transform="translate(-2555.73 -2704.16)" fill="#FFF"/>
        </g>
    </g>
    <g transform="translate(2571 2709)">
        <use xlink:href="#path6_fill" transform="translate(-2541.07 -2703.88)" fill="#FFF"/>
        <mask id="d">
        <path fill="#fff" transform="translate(-2541.07 -2703.88)" d="M-1-1h20v13H-1z"/>
        <use xlink:href="#path6_fill" transform="translate(-2541.07 -2703.88)"/>
        </mask>
        <g mask="url(#d)">
        <use xlink:href="#path7_stroke_2x" transform="translate(-2541.07 -2703.88)" fill="#FFF"/>
        </g>
    </g>
    <g transform="translate(2571 2709)">
        <use xlink:href="#path8_fill" transform="translate(-2520.31 -2704.16)" fill="#FFF"/>
        <mask id="e">
        <path fill="#fff" transform="translate(-2520.31 -2704.16)" d="M-1-1h14v18H-1z"/>
        <use xlink:href="#path8_fill" transform="translate(-2520.31 -2704.16)"/>
        </mask>
        <g mask="url(#e)">
        <use xlink:href="#path9_stroke_2x" transform="translate(-2520.31 -2704.16)" fill="#FFF"/>
        </g>
    </g>
    <g transform="translate(2571 2709)">
        <use xlink:href="#path10_fill" transform="translate(-2506.05 -2704.15)" fill="#FFF"/>
        <mask id="f">
        <path fill="#fff" transform="translate(-2506.05 -2704.15)" d="M-1-1h14v14H-1z"/>
        <use xlink:href="#path10_fill" transform="translate(-2506.05 -2704.15)"/>
        </mask>
        <g mask="url(#f)">
        <use xlink:href="#path11_stroke_2x" transform="translate(-2506.05 -2704.15)" fill="#FFF"/>
        </g>
    </g>
    <defs>
        <path id="path0_fill" d="M.142 4.698l1.547.01v11.145H.142V4.698zM0 .938C0 .416.399 0 .94 0c.512 0 .92.406.92.938 0 .541-.398.957-.92.957-.541 0-.94-.416-.94-.957z"/>
        <path id="path1_stroke_2x" d="M.142 4.698l.002-.25-.252-.002v.252h.25zm1.547.01h.25v-.249l-.248-.001-.002.25zm0 11.145v.25h.25v-.25h-.25zm-1.547 0h-.25v.25h.25v-.25zM.94 1.895v.25-.25zm-.8 3.053l1.548.01.003-.5-1.547-.01-.003.5zm1.3-.24v11.145h.5V4.708h-.5zm.25 10.895H.141v.5H1.69v-.5zm-1.298.25V4.698h-.5v11.155h.5zM.25.938C.25.55.54.25.94.25v-.5C.258-.25-.25.28-.25.938h.5zM.94.25c.371 0 .67.291.67.688h.5C2.11.27 1.593-.25.94-.25v.5zm.67.688c0 .412-.296.707-.67.707v.5c.669 0 1.17-.537 1.17-1.207h-.5zm-.67.707c-.397 0-.69-.298-.69-.707h-.5c0 .673.505 1.207 1.19 1.207v-.5z"/>
        <path id="path2_fill" d="M1.538 6.138c0 2.504 2.002 4.582 4.498 4.582 1.633 0 3.142-.918 3.93-2.368h1.67c-.883 2.368-3.122 3.925-5.61 3.925C2.668 12.277 0 9.521 0 6.138 0 2.716 2.705 0 6.027 0c2.439 0 4.603 1.46 5.543 3.741l.057.155h-1.69c-.75-1.46-2.306-2.35-3.91-2.35-2.44.01-4.49 2.05-4.49 4.592z"/>
        <path id="path3_stroke_2x" d="M9.966 8.352v-.25h-.15l-.07.13.22.12zm1.67 0l.234.087.126-.337h-.36v.25zM11.57 3.74l.234-.086-.003-.01-.231.096zm.057.155v.25h.358l-.124-.337-.234.087zm-1.69 0l-.222.114.07.136h.152v-.25zm-3.91-2.35v-.25h-.001v.25zm-4.74 4.592c0 2.636 2.11 4.832 4.75 4.832v-.5c-2.353 0-4.25-1.96-4.25-4.332h-.5zm4.75 4.832c1.726 0 3.318-.97 4.148-2.499l-.439-.238c-.745 1.371-2.172 2.237-3.71 2.237v.5zm3.929-2.368h1.67v-.5h-1.67v.5zm1.436-.337c-.847 2.271-2.994 3.761-5.375 3.761v.5c2.592 0 4.925-1.622 5.843-4.087l-.468-.174zm-5.375 3.761C2.81 12.027.25 9.39.25 6.139h-.5c0 3.516 2.774 6.389 6.277 6.389v-.5zM.25 6.139C.25 2.851 2.846.25 6.027.25v-.5C2.564-.25-.25 2.582-.25 6.138h.5zM6.027.25c2.336 0 4.41 1.397 5.311 3.586l.463-.19C10.823 1.272 8.569-.25 6.027-.25v.5zm5.308 3.577l.057.155.47-.173-.058-.154-.469.172zm.292-.181h-1.69v.5h1.69v-.5zm-1.468.135c-.794-1.547-2.44-2.484-4.132-2.484v.5c1.515 0 2.983.841 3.688 2.213l.444-.229zM6.026 1.297c-2.58.01-4.738 2.164-4.738 4.841h.5c0-2.407 1.94-4.332 4.24-4.341l-.002-.5z"/>
        <path id="path4_fill" d="M11.598 3.755A6.103 6.103 0 0 0 8.371.497C5.306-.866 1.775.69.475 3.755A6.084 6.084 0 0 0 0 6.142c0 3.422 2.733 6.138 6.036 6.138a5.925 5.925 0 0 0 4.243-1.778l.256-.261v1.769h1.519V6.142c0-.86-.152-1.653-.456-2.387zM10.174 7.93c-.72 1.681-2.315 2.793-4.157 2.793-2.458 0-4.48-2.04-4.48-4.582 0-.618.114-1.218.333-1.76.968-2.31 3.578-3.46 5.894-2.445 1.082.464 1.926 1.325 2.4 2.446.485 1.121.466 2.407.01 3.548z"/>
        <path id="path5_stroke_2x" d="M11.598 3.755l.231-.096-.001-.003-.23.099zM8.371.497L8.27.725l.002.001.1-.23zM.475 3.755l-.23-.098.23.098zm10.06 6.486h.25v-.612l-.428.437.178.175zm0 1.769h-.25v.25h.25v-.25zm1.519 0v.25h.25v-.25h-.25zm-1.88-4.08l.23.1.003-.007-.233-.092zM1.87 4.384l-.23-.097-.002.003.232.094zm5.894-2.446l-.1.23h.001l.099-.23zm2.4 2.446l-.23.097.001.002.23-.1zm1.664-.727A6.453 6.453 0 0 0 8.471.268l-.2.458c1.43.615 2.484 1.68 3.097 3.127l.46-.197zM8.473.27C5.269-1.156 1.595.474.244 3.657l.46.195C1.955.906 5.343-.576 8.27.725L8.473.27zM.244 3.658A6.44 6.44 0 0 0-.25 6.142h.5c-.001-.825.15-1.57.455-2.29l-.46-.194zM-.25 6.142c0 3.558 2.843 6.388 6.286 6.388v-.5C2.874 12.03.25 9.428.25 6.142h-.5zm6.286 6.388a6.175 6.175 0 0 0 4.421-1.853l-.357-.35a5.675 5.675 0 0 1-4.064 1.703v.5zm4.421-1.853l.256-.261-.356-.35-.257.26.357.351zm-.172-.436v1.769h.5v-1.77h-.5zm.25 2.019h1.519v-.5h-1.519v.5zm1.769-.25V6.142h-.5v5.868h.5zm0-5.868a6.534 6.534 0 0 0-.475-2.483l-.462.191c.295.71.438 1.456.437 2.292h.5zm-2.36 1.69c-.683 1.595-2.19 2.642-3.927 2.642v.5c1.947 0 3.629-1.176 4.387-2.945l-.46-.197zm-3.927 2.642c-2.315 0-4.23-1.923-4.23-4.332h-.5c0 2.676 2.13 4.832 4.73 4.832v-.5zm-4.23-4.332a4.355 4.355 0 0 1 .315-1.666l-.464-.187a5.071 5.071 0 0 0-.35 1.853h.5zM2.1 4.48c.918-2.19 3.384-3.269 5.563-2.314l.201-.458C5.412.634 2.658 1.856 1.64 4.286l.461.194zm5.565-2.313c1.02.438 1.82 1.25 2.27 2.313l.46-.195c-.499-1.178-1.39-2.087-2.533-2.578l-.197.46zm2.27 2.315c.456 1.055.44 2.271.007 3.356l.465.185c.478-1.197.5-2.552-.012-3.74l-.46.199z"/>
        <path id="path6_fill" d="M0 .59h1.585v1.005C2.354.57 3.683 0 4.925 0c1.69 0 3.123.899 4.044 2.31C9.89.85 11.503 0 13.202 0c2.724 0 4.917 2.3 4.917 5.046l.018 6.68h-1.585l-.018-6.68c0-1.885-1.472-3.441-3.341-3.441-1.87 0-3.36 1.556-3.36 3.44l.038 6.68H8.276l-.019-6.68c-.114-1.865-1.433-3.44-3.36-3.44-1.338 0-2.534.937-3.065 2.155-.171.406-.275.841-.275 1.276l.019 6.68H.009L0 .59z"/>
        <path id="path7_stroke_2x" d="M0 .59V.34h-.25v.25H0zm1.585 0h.25V.34h-.25v.25zm0 1.005h-.25v.75l.45-.6-.2-.15zm7.384.715l-.21.137.214.326.208-.33-.212-.133zm9.15 2.736h-.25.25zm.018 6.68v.25h.251v-.251h-.25zm-1.585 0h-.25l.001.25h.25v-.25zm-.018-6.68h-.25.25zm-6.701 0h-.25v.001l.25-.001zm.038 6.68v.25h.251l-.001-.252-.25.002zm-1.595 0h-.25v.25h.25v-.25zm-.019-6.68h.25V5.03l-.25.015zM1.832 3.76l-.23-.1v.003l.23.097zm-.275 1.276h-.25v.001h.25zm.019 6.68v.25h.25v-.25h-.25zm-1.567 0h-.25v.25h.25v-.25zM0 .84h1.585v-.5H0v.5zM1.335.59v1.005h.5V.59h-.5zm.45 1.155C2.5.792 3.75.25 4.925.25v-.5c-1.31 0-2.718.599-3.54 1.695l.4.3zM4.925.25c1.593 0 2.953.845 3.835 2.197l.418-.273C8.218.703 6.712-.25 4.926-.25v.5zm4.256 2.194C10.054 1.059 11.586.25 13.202.25v-.5c-1.781 0-3.476.892-4.444 2.427l.423.267zM13.202.25c2.578 0 4.667 2.18 4.667 4.796h.5c0-2.876-2.297-5.296-5.167-5.296v.5zm4.667 4.797l.018 6.68.5-.002-.018-6.68-.5.002zm.268 6.429h-1.585v.5h1.585v-.5zm-1.335.249l-.018-6.68-.5.002.018 6.68.5-.002zm-.018-6.68c0-2.013-1.575-3.69-3.591-3.69v.5c1.722 0 3.09 1.435 3.09 3.19h.5zm-3.591-3.69c-2.015 0-3.61 1.675-3.61 3.69h.5c0-1.753 1.385-3.19 3.11-3.19v-.5zm-3.61 3.692l.038 6.68.5-.003-.038-6.68-.5.003zm.288 6.429H8.276v.5h1.595v-.5zm-1.345.249l-.019-6.68-.5.002.02 6.68.5-.002zm-.02-6.694c-.12-1.967-1.52-3.676-3.609-3.676v.5c1.766 0 3.003 1.442 3.11 3.206l.5-.03zM4.898 1.355c-1.456 0-2.731 1.014-3.294 2.305l.458.2c.5-1.145 1.616-2.005 2.836-2.005v-.5zM1.601 3.663a3.674 3.674 0 0 0-.294 1.373h.5a2.96 2.96 0 0 1 .255-1.179l-.46-.194zm-.294 1.374l.019 6.68.5-.002-.02-6.68-.5.002zm.269 6.429H.009v.5h1.567v-.5zm-1.317.25L.25.589h-.5l.01 11.127h.5z"/>
        <path id="path8_fill" d="M8.371.488C6.121-.498 3.493.043 1.775 1.812A6.071 6.071 0 0 0 0 6.133h.01v10.024h1.528V9.903c.882 1.421 2.904 2.368 4.498 2.368 2.44 0 4.594-1.46 5.543-3.74 1.31-3.123-.18-6.719-3.208-8.043zm1.784 7.434c-.702 1.7-2.315 2.813-4.138 2.813-1.196 0-2.315-.484-3.18-1.344a4.993 4.993 0 0 1-.958-1.48 4.462 4.462 0 0 1-.36-1.768c0-1.218.474-2.359 1.31-3.229 1.3-1.305 3.245-1.71 4.916-.976 2.278.996 3.378 3.673 2.41 5.984z"/>
        <path id="path9_stroke_2x" d="M8.371.488l-.1.229.1-.229zM1.775 1.812l.176.178.003-.004-.18-.174zM0 6.133h-.25v.25H0v-.25zm.01 0h.25v-.25H.01v.25zm0 10.024h-.25v.25h.25v-.25zm1.528 0v.25h.25v-.25h-.25zm0-6.254l.212-.132-.462-.744v.876h.25zm10.041-1.372l-.23-.097.23.097zm-1.424-.61l-.23-.096v.001l.23.096zm-7.317 1.47l-.183.17.006.007.177-.177zm-.959-1.48l.23-.097v-.001l-.23.099zm.95-4.997l-.178-.176-.003.003.18.173zm4.916-.976l-.1.229.1-.229zM8.47.259C6.124-.77 3.384-.204 1.595 1.639l.36.347C3.6.291 6.118-.226 8.27.717l.2-.458zM1.6 1.635A6.321 6.321 0 0 0-.25 6.133h.5c0-1.56.601-3.051 1.701-4.143l-.352-.355zM0 6.383h.01v-.5H0v.5zm-.24-.25v10.024h.5V6.133h-.5zm.25 10.274h1.528v-.5H.009v.5zm1.778-.25V9.903h-.5v6.254h.5zm-.463-6.122c.936 1.506 3.045 2.486 4.711 2.486v-.5c-1.522 0-3.456-.914-4.286-2.25l-.425.264zm4.711 2.486c2.543 0 4.787-1.522 5.774-3.894l-.462-.192c-.91 2.19-2.976 3.586-5.312 3.586v.5zm5.774-3.894c1.363-3.25-.187-6.99-3.339-8.368l-.2.458c2.904 1.27 4.334 4.722 3.078 7.717l.46.193zm-1.886-.8c-.665 1.61-2.19 2.658-3.907 2.658v.5c1.927 0 3.63-1.177 4.37-2.968l-.463-.19zm-3.907 2.658c-1.126 0-2.183-.455-3.003-1.271l-.353.354c.908.904 2.09 1.417 3.356 1.417v-.5zM3.02 9.22a4.639 4.639 0 0 1-.91-1.406l-.461.195c.247.581.594 1.111 1.006 1.553l.365-.342zM2.11 7.813a4.108 4.108 0 0 1-.34-1.67h-.5c0 .644.134 1.293.38 1.868l.46-.198zm-.34-1.67c0-1.152.448-2.23 1.24-3.056l-.361-.346a4.892 4.892 0 0 0-1.38 3.402h.5zM3.005 3.09c1.231-1.236 3.068-1.615 4.64-.924l.2-.458c-1.77-.778-3.824-.346-5.194 1.029l.354.353zm4.64-.924c2.154.942 3.194 3.475 2.28 5.658l.461.193c1.022-2.438-.14-5.26-2.541-6.31l-.2.459z"/>
        <path id="path10_fill" d="M11.58 3.75a6.394 6.394 0 0 0-1.301-1.962C9.13.638 7.62 0 6.027 0 2.705 0 0 2.716 0 6.138c0 .86.161 1.653.465 2.398.968 2.271 3.104 3.74 5.562 3.74 1.832 0 3.198-.715 4.48-2.04v1.77h1.547V6.148c0-.86-.171-1.653-.475-2.397zm-1.425 4.177c-.72 1.682-2.334 2.793-4.138 2.793-1.822 0-3.426-1.111-4.157-2.822-.237-.542-.341-1.141-.341-1.76 0-2.503 2.002-4.582 4.498-4.582 1.177 0 2.316.484 3.16 1.344.418.425.722.918.969 1.479.484 1.112.465 2.397.01 3.548z"/>
        <path id="path11_stroke_2x" d="M11.58 3.75l.23-.094-.002-.005-.229.1zm-1.301-1.962l.178-.175-.001-.001-.177.176zM.465 8.536l-.231.094.001.004.23-.098zm10.042 1.7h.25V9.62l-.43.444.18.174zm0 1.77h-.25v.25h.25v-.25zm1.547 0v.25h.25v-.25h-.25zm-1.899-4.08l.23.1.003-.007-.232-.092zM1.86 7.899l.23-.099v-.002l-.23.1zm8.286-3.52l.23-.099h-.001l-.229.1zm1.662-.727a6.751 6.751 0 0 0-1.35-2.038l-.358.35a6.04 6.04 0 0 1 1.25 1.887l.459-.199zm-1.352-2.04C9.262.417 7.69-.25 6.026-.25v.5C7.554.25 9 .86 10.103 1.965l.354-.353zM6.026-.25C2.565-.25-.25 2.582-.25 6.138h.5C.25 2.851 2.846.25 6.027.25v-.5zM-.25 6.138c.001.886.172 1.726.484 2.492l.463-.189A5.912 5.912 0 0 1 .25 6.138h-.5zm.485 2.496c1.006 2.36 3.23 3.893 5.792 3.893v-.5c-2.354 0-4.401-1.406-5.332-3.59l-.46.197zm5.792 3.893c1.913 0 3.341-.754 4.66-2.116l-.36-.348c-1.245 1.286-2.55 1.963-4.3 1.963v.5zm4.23-2.29v1.769h.5v-1.77h-.5zm.25 2.019h1.547v-.5h-1.547v.5zm1.797-.25V6.148h-.5v5.858h.5zm0-5.858a6.627 6.627 0 0 0-.493-2.492l-.463.19c.296.723.457 1.468.456 2.302h.5zm-2.378 1.68c-.684 1.595-2.21 2.642-3.909 2.642v.5c1.909 0 3.61-1.176 4.368-2.945l-.46-.197zM6.017 10.47c-1.716 0-3.233-1.046-3.927-2.67l-.46.196c.768 1.797 2.459 2.974 4.387 2.974v-.5zM2.09 7.797c-.227-.513-.321-1.062-.32-1.659h-.5c0 .64.115 1.29.362 1.86l.458-.2zm-.32-1.659c0-2.371 1.896-4.332 4.248-4.332v-.5c-2.64 0-4.748 2.196-4.748 4.832h.5zm4.248-4.332c1.109 0 2.184.455 2.982 1.27l.357-.351a4.688 4.688 0 0 0-3.339-1.419v.5zM9 3.076c.4.403.679.858.918 1.404l.458-.202c-.254-.576-.583-1.107-1.019-1.553L9 3.075zm.918 1.403c.455 1.044.44 2.26.006 3.356l.465.184c.477-1.206.5-2.561-.013-3.74l-.458.2z"/>
    </defs>
</svg>